{
  "accessors": [
    {
      "bufferView": 2,
      "componentType": 5126,
      "count": 6377,
      "max": [
        0.8822511434555054,
        0.883134126663208,
        0.9073935151100159
      ],
      "min": [
        -0.8955369591712952,
        -0.9209414720535278,
        -0.9081293940544128
      ],
      "type": "VEC3"
    },
    {
      "bufferView": 2,
      "byteOffset": 76524,
      "componentType": 5126,
      "count": 6377,
      "max": [
        0.9999628067016602,
        0.998380184173584,
        0.9999839067459106
      ],
      "min": [
        -0.999686598777771,
        -0.9996277093887329,
        -0.999703049659729
      ],
      "type": "VEC3"
    },
    {
      "bufferView": 1,
      "componentType": 5126,
      "count": 6377,
      "max": [
        0.8750001192092896,
        1.0000001192092896
      ],
      "min": [
        0.125,
        0.0
      ],
      "type": "VEC2"
    },
    {
      "bufferView": 0,
      "componentType": 5125,
      "count": 36864,
      "type": "SCALAR"
    },
    {
      "bufferView": 2,
      "byteOffset": 153048,
      "componentType": 5126,
      "count": 6377,
      "max": [
        0.8519914746284485,
        0.8475860953330994,
        0.8615108728408813
      ],
      "min": [
        -0.8569785356521606,
        -0.8553428053855896,
        -0.858651876449585
      ],
      "type": "VEC3"
    },
    {
      "bufferView": 2,
      "byteOffset": 229572,
      "componentType": 5126,
      "count": 6377,
      "max": [
        0.999951958656311,
        0.9999105930328369,
        0.9999638795852661
      ],
      "min": [
        -0.9997038841247559,
        -0.9997996091842651,
        -0.9995934963226318
      ],
      "type": "VEC3"
    },
    {
      "bufferView": 1,
      "byteOffset": 51016,
      "componentType": 5126,
      "count": 6377,
      "max": [
        0.8750001192092896,
        1.0000001192092896
      ],
      "min": [
        0.125,
        0.0
      ],
      "type": "VEC2"
    },
    {
      "bufferView": 0,
      "byteOffset": 147456,
      "componentType": 5125,
      "count": 36864,
      "type": "SCALAR"
    }
  ],
  "asset": {
    "extras": {
      "author": "estkm (https://sketchfab.com/estkm)",
      "license": "CC-BY-4.0 (http://creativecommons.org/licenses/by/4.0/)",
      "source": "https://sketchfab.com/3d-models/stem-cell-52d66905dadb4b0996200e230dba9400",
      "title": "Stem cell"
    },
    "generator": "Sketchfab-12.66.0",
    "version": "2.0"
  },
  "bufferViews": [
    {
      "buffer": 0,
      "byteLength": 294912,
      "name": "floatBufferViews",
      "target": 34963
    },
    {
      "buffer": 0,
      "byteLength": 102032,
      "byteOffset": 294912,
      "byteStride": 8,
      "name": "floatBufferViews",
      "target": 34962
    },
    {
      "buffer": 0,
      "byteLength": 306096,
      "byteOffset": 396944,
      "byteStride": 12,
      "name": "floatBufferViews",
      "target": 34962
    }
  ],
  "buffers": [
    {
      "byteLength": 703040,
      "uri": "scene.bin"
    }
  ],
  "materials": [
    {
      "doubleSided": true,
      "name": "Nucleus",
      "pbrMetallicRoughness": {
        "baseColorFactor": [
          0.8,
          0.058456,
          0.396683,
          1.0
        ],
        "metallicFactor": 0.0,
        "roughnessFactor": 0.00909091
      }
    },
    {
      "doubleSided": true,
      "name": "Membrane",
      "pbrMetallicRoughness": {
        "baseColorFactor": [
          0.8,
          0.8,
          0.8,
          1.0
        ],
        "metallicFactor": 0.0,
        "roughnessFactor": 0.0659091
      }
    }
  ],
  "meshes": [
    {
      "name": "Object_0",
      "primitives": [
        {
          "attributes": {
            "NORMAL": 1,
            "POSITION": 0,
            "TEXCOORD_0": 2
          },
          "indices": 3,
          "material": 0,
          "mode": 4
        }
      ]
    },
    {
      "name": "Object_1",
      "primitives": [
        {
          "attributes": {
            "NORMAL": 5,
            "POSITION": 4,
            "TEXCOORD_0": 6
          },
          "indices": 7,
          "material": 1,
          "mode": 4
        }
      ]
    }
  ],
  "nodes": [
    {
      "children": [
        1
      ],
      "matrix": [
        1.0,
        0.0,
        0.0,
        0.0,
        0.0,
        2.220446049250313e-16,
        -1.0,
        0.0,
        0.0,
        1.0,
        2.220446049250313e-16,
        0.0,
        0.0,
        0.0,
        0.0,
        1.0
      ],
      "name": "Sketchfab_model"
    },
    {
      "children": [
        2
      ],
      "name": "root"
    },
    {
      "children": [
        3,
        5
      ],
      "matrix": [
        1.0,
        0.0,
        0.0,
        0.0,
        0.0,
        2.220446049250313e-16,
        1.0,
        0.0,
        0.0,
        -1.0,
        2.220446049250313e-16,
        0.0,
        0.0,
        0.0,
        0.0,
        1.0
      ],
      "name": "GLTF_SceneRootNode"
    },
    {
      "children": [
        4
      ],
      "name": "nucleus_0"
    },
    {
      "mesh": 0,
      "name": "Object_4"
    },
    {
      "children": [
        6
      ],
      "matrix": [
        -1.5906717777252197,
        -0.0,
        -0.0,
        -0.0,
        -0.0,
        -1.5906717777252197,
        -0.0,
        -0.0,
        -0.0,
        -0.0,
        -1.5906717777252197,
        -0.0,
        0.0,
        0.0,
        0.0,
        1.0
      ],
      "name": "membrane_3"
    },
    {
      "mesh": 1,
      "name": "Object_6"
    }
  ],
  "scene": 0,
  "scenes": [
    {
      "name": "Sketchfab_Scene",
      "nodes": [
        0
      ]
    }
  ]
}
